# xmcd CD database file
#
# Track frame offsets:
#	150
#	16714
#	33587
#	49276
#	73022
#	89415
#	104174
#	127915
#	146142
#	160073
#	177706
#	205076
#	238402
#	262588
#	290702
#	319215
#
# Disc length: 4592 seconds
#
# Revision: 0
# Processed by: cddbd v1.5PL3 Copyright (c) Steve Scherf et al.
# Submitted via: CDex 1.51
#
DISCID=f311ee10
DTITLE=SALSOUL ORCHESTRA - The Best Of The Salsoul Orchestra disk2
DYEAR=1900
DGENRE=Salsa
TTITLE0=STREET SENCE
TTITLE1=SALSOUL 3001
TTITLE2=SOMEBODY TO LOVE
TTITLE3=YOU SHOULD BE DANCING
TTITLE4=STANDING AND WAITING ON LOVE
TTITLE5=WESTSIDE ENCOUNTER-WEST SIDE STORY (MEDLEY)
TTITLE6=WE'VE ONLY JUST BEGUN - FEELINGS
TTITLE7=SALSOUL RAINBOW
TTITLE8=GET HAPPY
TTITLE9=STAYIN' ALIVE
TTITLE10=TALES OF THREE CITIES
TTITLE11=OOH I LOVE IT (LOVE BREAK)
TTITLE12=NICE AND NAASTY
TTITLE13=HOW HIGH
TTITLE14=DANCE A LITTLE BIT CLOSER
TTITLE15=TAKE SOME TIME OUT (FOR LOVE)
EXTD=
EXTT0=
EXTT1=
EXTT2=
EXTT3=
EXTT4=
EXTT5=
EXTT6=
EXTT7=
EXTT8=
EXTT9=
EXTT10=
EXTT11=
EXTT12=
EXTT13=
EXTT14=
EXTT15=
PLAYORDER=
